<mxfile host="app.diagrams.net" modified="2023-10-17T08:08:54.966Z" agent="Mozilla/5.0 (Windows NT 10.0; Win64; x64) AppleWebKit/537.36 (KHTML, like Gecko) Chrome/118.0.0.0 Safari/537.36" etag="A8banKnNsKoB_0Y5Yofw" version="22.0.4" type="google">
  <diagram name="Page-1" id="4D2Cl8t71JSty5ZRnAxs">
    <mxGraphModel dx="1434" dy="758" grid="1" gridSize="10" guides="1" tooltips="1" connect="1" arrows="1" fold="1" page="1" pageScale="1" pageWidth="850" pageHeight="1100" math="0" shadow="0">
      <root>
        <mxCell id="0" />
        <mxCell id="1" parent="0" />
        <mxCell id="1TbfYhRnuercMT2C-Q1D-61" style="edgeStyle=orthogonalEdgeStyle;rounded=0;orthogonalLoop=1;jettySize=auto;html=1;entryX=0.75;entryY=0;entryDx=0;entryDy=0;fillColor=#f0a30a;strokeColor=#BD7000;" edge="1" parent="1" source="1TbfYhRnuercMT2C-Q1D-2" target="1TbfYhRnuercMT2C-Q1D-58">
          <mxGeometry relative="1" as="geometry" />
        </mxCell>
        <mxCell id="1TbfYhRnuercMT2C-Q1D-66" value="30%" style="edgeLabel;html=1;align=center;verticalAlign=middle;resizable=0;points=[];" vertex="1" connectable="0" parent="1TbfYhRnuercMT2C-Q1D-61">
          <mxGeometry x="-0.5804" y="-2" relative="1" as="geometry">
            <mxPoint x="2" as="offset" />
          </mxGeometry>
        </mxCell>
        <mxCell id="1TbfYhRnuercMT2C-Q1D-60" style="edgeStyle=orthogonalEdgeStyle;rounded=0;orthogonalLoop=1;jettySize=auto;html=1;entryX=0.5;entryY=0;entryDx=0;entryDy=0;fillColor=#f0a30a;strokeColor=#BD7000;" edge="1" parent="1" source="1TbfYhRnuercMT2C-Q1D-4" target="1TbfYhRnuercMT2C-Q1D-58">
          <mxGeometry relative="1" as="geometry" />
        </mxCell>
        <mxCell id="1TbfYhRnuercMT2C-Q1D-67" value="30%" style="edgeLabel;html=1;align=center;verticalAlign=middle;resizable=0;points=[];" vertex="1" connectable="0" parent="1TbfYhRnuercMT2C-Q1D-60">
          <mxGeometry x="-0.4187" relative="1" as="geometry">
            <mxPoint y="-3" as="offset" />
          </mxGeometry>
        </mxCell>
        <mxCell id="1TbfYhRnuercMT2C-Q1D-59" style="edgeStyle=orthogonalEdgeStyle;rounded=0;orthogonalLoop=1;jettySize=auto;html=1;entryX=0.25;entryY=0;entryDx=0;entryDy=0;fillColor=#f0a30a;strokeColor=#BD7000;" edge="1" parent="1" source="1TbfYhRnuercMT2C-Q1D-5" target="1TbfYhRnuercMT2C-Q1D-58">
          <mxGeometry relative="1" as="geometry" />
        </mxCell>
        <mxCell id="1TbfYhRnuercMT2C-Q1D-68" value="30%" style="edgeLabel;html=1;align=center;verticalAlign=middle;resizable=0;points=[];" vertex="1" connectable="0" parent="1TbfYhRnuercMT2C-Q1D-59">
          <mxGeometry relative="1" as="geometry">
            <mxPoint as="offset" />
          </mxGeometry>
        </mxCell>
        <mxCell id="1TbfYhRnuercMT2C-Q1D-32" style="edgeStyle=orthogonalEdgeStyle;rounded=0;orthogonalLoop=1;jettySize=auto;html=1;entryX=0.25;entryY=1;entryDx=0;entryDy=0;" edge="1" parent="1" source="1TbfYhRnuercMT2C-Q1D-2" target="1TbfYhRnuercMT2C-Q1D-53">
          <mxGeometry relative="1" as="geometry">
            <mxPoint x="510" y="160" as="targetPoint" />
          </mxGeometry>
        </mxCell>
        <mxCell id="1TbfYhRnuercMT2C-Q1D-72" value="50%" style="edgeLabel;html=1;align=center;verticalAlign=middle;resizable=0;points=[];" vertex="1" connectable="0" parent="1TbfYhRnuercMT2C-Q1D-32">
          <mxGeometry x="0.6923" y="-3" relative="1" as="geometry">
            <mxPoint x="-3" as="offset" />
          </mxGeometry>
        </mxCell>
        <mxCell id="1TbfYhRnuercMT2C-Q1D-2" value="System Disk 1" style="shape=cylinder3;whiteSpace=wrap;html=1;boundedLbl=1;backgroundOutline=1;size=15;" vertex="1" parent="1">
          <mxGeometry x="350" y="200" width="60" height="60" as="geometry" />
        </mxCell>
        <mxCell id="1TbfYhRnuercMT2C-Q1D-48" style="edgeStyle=orthogonalEdgeStyle;rounded=0;orthogonalLoop=1;jettySize=auto;html=1;entryX=0.5;entryY=1;entryDx=0;entryDy=0;" edge="1" parent="1" source="1TbfYhRnuercMT2C-Q1D-4" target="1TbfYhRnuercMT2C-Q1D-53">
          <mxGeometry relative="1" as="geometry">
            <mxPoint x="510" y="160" as="targetPoint" />
          </mxGeometry>
        </mxCell>
        <mxCell id="1TbfYhRnuercMT2C-Q1D-73" value="50%" style="edgeLabel;html=1;align=center;verticalAlign=middle;resizable=0;points=[];" vertex="1" connectable="0" parent="1TbfYhRnuercMT2C-Q1D-48">
          <mxGeometry x="-0.3687" y="-1" relative="1" as="geometry">
            <mxPoint as="offset" />
          </mxGeometry>
        </mxCell>
        <mxCell id="1TbfYhRnuercMT2C-Q1D-4" value="System Disk 2" style="shape=cylinder3;whiteSpace=wrap;html=1;boundedLbl=1;backgroundOutline=1;size=15;" vertex="1" parent="1">
          <mxGeometry x="350" y="370" width="60" height="60" as="geometry" />
        </mxCell>
        <mxCell id="1TbfYhRnuercMT2C-Q1D-49" style="edgeStyle=orthogonalEdgeStyle;rounded=0;orthogonalLoop=1;jettySize=auto;html=1;entryX=0.75;entryY=1;entryDx=0;entryDy=0;" edge="1" parent="1" source="1TbfYhRnuercMT2C-Q1D-5" target="1TbfYhRnuercMT2C-Q1D-53">
          <mxGeometry relative="1" as="geometry">
            <mxPoint x="510" y="160" as="targetPoint" />
          </mxGeometry>
        </mxCell>
        <mxCell id="1TbfYhRnuercMT2C-Q1D-74" value="50%" style="edgeLabel;html=1;align=center;verticalAlign=middle;resizable=0;points=[];" vertex="1" connectable="0" parent="1TbfYhRnuercMT2C-Q1D-49">
          <mxGeometry x="-0.5765" y="-1" relative="1" as="geometry">
            <mxPoint as="offset" />
          </mxGeometry>
        </mxCell>
        <mxCell id="1TbfYhRnuercMT2C-Q1D-5" value="System Disk 3" style="shape=cylinder3;whiteSpace=wrap;html=1;boundedLbl=1;backgroundOutline=1;size=15;" vertex="1" parent="1">
          <mxGeometry x="350" y="540" width="60" height="60" as="geometry" />
        </mxCell>
        <mxCell id="1TbfYhRnuercMT2C-Q1D-84" style="edgeStyle=orthogonalEdgeStyle;rounded=0;orthogonalLoop=1;jettySize=auto;html=1;" edge="1" parent="1" source="1TbfYhRnuercMT2C-Q1D-6">
          <mxGeometry relative="1" as="geometry">
            <mxPoint x="770" y="70" as="targetPoint" />
          </mxGeometry>
        </mxCell>
        <mxCell id="1TbfYhRnuercMT2C-Q1D-6" value="User Disk 1" style="shape=cylinder3;whiteSpace=wrap;html=1;boundedLbl=1;backgroundOutline=1;size=15;" vertex="1" parent="1">
          <mxGeometry x="670" y="40" width="60" height="60" as="geometry" />
        </mxCell>
        <mxCell id="1TbfYhRnuercMT2C-Q1D-16" style="edgeStyle=orthogonalEdgeStyle;rounded=0;orthogonalLoop=1;jettySize=auto;html=1;startArrow=classic;startFill=1;endArrow=none;endFill=0;" edge="1" parent="1" source="1TbfYhRnuercMT2C-Q1D-8">
          <mxGeometry relative="1" as="geometry">
            <mxPoint x="40" y="400" as="targetPoint" />
          </mxGeometry>
        </mxCell>
        <mxCell id="1TbfYhRnuercMT2C-Q1D-81" style="edgeStyle=orthogonalEdgeStyle;rounded=0;orthogonalLoop=1;jettySize=auto;html=1;entryX=0.25;entryY=1;entryDx=0;entryDy=0;exitX=1;exitY=0.5;exitDx=0;exitDy=0;" edge="1" parent="1" source="1TbfYhRnuercMT2C-Q1D-8" target="1TbfYhRnuercMT2C-Q1D-76">
          <mxGeometry relative="1" as="geometry">
            <Array as="points">
              <mxPoint x="240" y="400" />
              <mxPoint x="240" y="130" />
            </Array>
          </mxGeometry>
        </mxCell>
        <mxCell id="1TbfYhRnuercMT2C-Q1D-82" value="50%" style="edgeLabel;html=1;align=center;verticalAlign=middle;resizable=0;points=[];" vertex="1" connectable="0" parent="1TbfYhRnuercMT2C-Q1D-81">
          <mxGeometry x="-0.8229" y="-1" relative="1" as="geometry">
            <mxPoint as="offset" />
          </mxGeometry>
        </mxCell>
        <mxCell id="1TbfYhRnuercMT2C-Q1D-8" value="Processor" style="rounded=0;whiteSpace=wrap;html=1;" vertex="1" parent="1">
          <mxGeometry x="90" y="370" width="120" height="60" as="geometry" />
        </mxCell>
        <mxCell id="1TbfYhRnuercMT2C-Q1D-9" style="edgeStyle=orthogonalEdgeStyle;rounded=0;orthogonalLoop=1;jettySize=auto;html=1;entryX=0;entryY=0.5;entryDx=0;entryDy=0;entryPerimeter=0;" edge="1" parent="1" source="1TbfYhRnuercMT2C-Q1D-8" target="1TbfYhRnuercMT2C-Q1D-2">
          <mxGeometry relative="1" as="geometry" />
        </mxCell>
        <mxCell id="1TbfYhRnuercMT2C-Q1D-20" value="15%" style="edgeLabel;html=1;align=center;verticalAlign=middle;resizable=0;points=[];" vertex="1" connectable="0" parent="1TbfYhRnuercMT2C-Q1D-9">
          <mxGeometry x="0.6381" relative="1" as="geometry">
            <mxPoint x="16" as="offset" />
          </mxGeometry>
        </mxCell>
        <mxCell id="1TbfYhRnuercMT2C-Q1D-10" style="edgeStyle=orthogonalEdgeStyle;rounded=0;orthogonalLoop=1;jettySize=auto;html=1;entryX=0;entryY=0.5;entryDx=0;entryDy=0;entryPerimeter=0;" edge="1" parent="1" source="1TbfYhRnuercMT2C-Q1D-8" target="1TbfYhRnuercMT2C-Q1D-4">
          <mxGeometry relative="1" as="geometry" />
        </mxCell>
        <mxCell id="1TbfYhRnuercMT2C-Q1D-21" value="10%" style="edgeLabel;html=1;align=center;verticalAlign=middle;resizable=0;points=[];" vertex="1" connectable="0" parent="1TbfYhRnuercMT2C-Q1D-10">
          <mxGeometry x="0.4714" relative="1" as="geometry">
            <mxPoint x="-3" as="offset" />
          </mxGeometry>
        </mxCell>
        <mxCell id="1TbfYhRnuercMT2C-Q1D-11" style="edgeStyle=orthogonalEdgeStyle;rounded=0;orthogonalLoop=1;jettySize=auto;html=1;entryX=0;entryY=0.5;entryDx=0;entryDy=0;entryPerimeter=0;" edge="1" parent="1" source="1TbfYhRnuercMT2C-Q1D-8" target="1TbfYhRnuercMT2C-Q1D-5">
          <mxGeometry relative="1" as="geometry" />
        </mxCell>
        <mxCell id="1TbfYhRnuercMT2C-Q1D-22" value="5%" style="edgeLabel;html=1;align=center;verticalAlign=middle;resizable=0;points=[];" vertex="1" connectable="0" parent="1TbfYhRnuercMT2C-Q1D-11">
          <mxGeometry x="0.6476" y="2" relative="1" as="geometry">
            <mxPoint x="15" y="2" as="offset" />
          </mxGeometry>
        </mxCell>
        <mxCell id="1TbfYhRnuercMT2C-Q1D-85" style="edgeStyle=orthogonalEdgeStyle;rounded=0;orthogonalLoop=1;jettySize=auto;html=1;" edge="1" parent="1" source="1TbfYhRnuercMT2C-Q1D-12">
          <mxGeometry relative="1" as="geometry">
            <mxPoint x="770" y="150" as="targetPoint" />
          </mxGeometry>
        </mxCell>
        <mxCell id="1TbfYhRnuercMT2C-Q1D-12" value="User Disk 2" style="shape=cylinder3;whiteSpace=wrap;html=1;boundedLbl=1;backgroundOutline=1;size=15;" vertex="1" parent="1">
          <mxGeometry x="670" y="120" width="60" height="60" as="geometry" />
        </mxCell>
        <mxCell id="1TbfYhRnuercMT2C-Q1D-13" value="" style="endArrow=none;dashed=1;html=1;dashPattern=1 3;strokeWidth=2;rounded=0;" edge="1" parent="1">
          <mxGeometry width="50" height="50" relative="1" as="geometry">
            <mxPoint x="700" y="190" as="sourcePoint" />
            <mxPoint x="700" y="230" as="targetPoint" />
          </mxGeometry>
        </mxCell>
        <mxCell id="1TbfYhRnuercMT2C-Q1D-86" style="edgeStyle=orthogonalEdgeStyle;rounded=0;orthogonalLoop=1;jettySize=auto;html=1;" edge="1" parent="1" source="1TbfYhRnuercMT2C-Q1D-14">
          <mxGeometry relative="1" as="geometry">
            <mxPoint x="770" y="260" as="targetPoint" />
          </mxGeometry>
        </mxCell>
        <mxCell id="1TbfYhRnuercMT2C-Q1D-14" value="User Disk N" style="shape=cylinder3;whiteSpace=wrap;html=1;boundedLbl=1;backgroundOutline=1;size=15;" vertex="1" parent="1">
          <mxGeometry x="670" y="230" width="60" height="60" as="geometry" />
        </mxCell>
        <mxCell id="1TbfYhRnuercMT2C-Q1D-15" style="edgeStyle=orthogonalEdgeStyle;rounded=0;orthogonalLoop=1;jettySize=auto;html=1;entryX=0.75;entryY=1;entryDx=0;entryDy=0;exitX=1;exitY=0.5;exitDx=0;exitDy=0;" edge="1" parent="1" source="1TbfYhRnuercMT2C-Q1D-8" target="1TbfYhRnuercMT2C-Q1D-8">
          <mxGeometry relative="1" as="geometry">
            <Array as="points">
              <mxPoint x="240" y="400" />
              <mxPoint x="240" y="470" />
              <mxPoint x="180" y="470" />
            </Array>
          </mxGeometry>
        </mxCell>
        <mxCell id="1TbfYhRnuercMT2C-Q1D-24" value="20%" style="edgeLabel;html=1;align=center;verticalAlign=middle;resizable=0;points=[];" vertex="1" connectable="0" parent="1TbfYhRnuercMT2C-Q1D-15">
          <mxGeometry x="-0.4783" relative="1" as="geometry">
            <mxPoint as="offset" />
          </mxGeometry>
        </mxCell>
        <mxCell id="1TbfYhRnuercMT2C-Q1D-29" style="edgeStyle=orthogonalEdgeStyle;rounded=0;orthogonalLoop=1;jettySize=auto;html=1;entryX=0.5;entryY=1;entryDx=0;entryDy=0;entryPerimeter=0;exitX=1;exitY=0.5;exitDx=0;exitDy=0;exitPerimeter=0;" edge="1" parent="1" source="1TbfYhRnuercMT2C-Q1D-2" target="1TbfYhRnuercMT2C-Q1D-2">
          <mxGeometry relative="1" as="geometry" />
        </mxCell>
        <mxCell id="1TbfYhRnuercMT2C-Q1D-69" value="20%" style="edgeLabel;html=1;align=center;verticalAlign=middle;resizable=0;points=[];" vertex="1" connectable="0" parent="1TbfYhRnuercMT2C-Q1D-29">
          <mxGeometry x="-0.3286" relative="1" as="geometry">
            <mxPoint as="offset" />
          </mxGeometry>
        </mxCell>
        <mxCell id="1TbfYhRnuercMT2C-Q1D-30" style="edgeStyle=orthogonalEdgeStyle;rounded=0;orthogonalLoop=1;jettySize=auto;html=1;entryX=0.5;entryY=1;entryDx=0;entryDy=0;entryPerimeter=0;exitX=1;exitY=0.5;exitDx=0;exitDy=0;exitPerimeter=0;" edge="1" parent="1" source="1TbfYhRnuercMT2C-Q1D-4" target="1TbfYhRnuercMT2C-Q1D-4">
          <mxGeometry relative="1" as="geometry" />
        </mxCell>
        <mxCell id="1TbfYhRnuercMT2C-Q1D-70" value="20%" style="edgeLabel;html=1;align=center;verticalAlign=middle;resizable=0;points=[];" vertex="1" connectable="0" parent="1TbfYhRnuercMT2C-Q1D-30">
          <mxGeometry x="-0.3" relative="1" as="geometry">
            <mxPoint y="1" as="offset" />
          </mxGeometry>
        </mxCell>
        <mxCell id="1TbfYhRnuercMT2C-Q1D-31" style="edgeStyle=orthogonalEdgeStyle;rounded=0;orthogonalLoop=1;jettySize=auto;html=1;entryX=0.5;entryY=1;entryDx=0;entryDy=0;entryPerimeter=0;exitX=1;exitY=0.5;exitDx=0;exitDy=0;exitPerimeter=0;" edge="1" parent="1" source="1TbfYhRnuercMT2C-Q1D-5" target="1TbfYhRnuercMT2C-Q1D-5">
          <mxGeometry relative="1" as="geometry" />
        </mxCell>
        <mxCell id="1TbfYhRnuercMT2C-Q1D-71" value="20%" style="edgeLabel;html=1;align=center;verticalAlign=middle;resizable=0;points=[];" vertex="1" connectable="0" parent="1TbfYhRnuercMT2C-Q1D-31">
          <mxGeometry x="-0.3571" relative="1" as="geometry">
            <mxPoint y="-15" as="offset" />
          </mxGeometry>
        </mxCell>
        <mxCell id="1TbfYhRnuercMT2C-Q1D-34" style="edgeStyle=orthogonalEdgeStyle;rounded=0;orthogonalLoop=1;jettySize=auto;html=1;entryX=0;entryY=0.5;entryDx=0;entryDy=0;entryPerimeter=0;exitX=0.5;exitY=0;exitDx=0;exitDy=0;" edge="1" parent="1" source="1TbfYhRnuercMT2C-Q1D-76" target="1TbfYhRnuercMT2C-Q1D-6">
          <mxGeometry relative="1" as="geometry">
            <mxPoint x="550" y="150" as="sourcePoint" />
            <Array as="points">
              <mxPoint x="625" y="150" />
              <mxPoint x="625" y="70" />
            </Array>
          </mxGeometry>
        </mxCell>
        <mxCell id="1TbfYhRnuercMT2C-Q1D-40" value="X%" style="edgeLabel;html=1;align=center;verticalAlign=middle;resizable=0;points=[];" vertex="1" connectable="0" parent="1TbfYhRnuercMT2C-Q1D-34">
          <mxGeometry x="0.6941" relative="1" as="geometry">
            <mxPoint x="-8" as="offset" />
          </mxGeometry>
        </mxCell>
        <mxCell id="1TbfYhRnuercMT2C-Q1D-35" style="edgeStyle=orthogonalEdgeStyle;rounded=0;orthogonalLoop=1;jettySize=auto;html=1;entryX=0;entryY=0.5;entryDx=0;entryDy=0;entryPerimeter=0;exitX=0.5;exitY=0;exitDx=0;exitDy=0;" edge="1" parent="1" source="1TbfYhRnuercMT2C-Q1D-76" target="1TbfYhRnuercMT2C-Q1D-12">
          <mxGeometry relative="1" as="geometry">
            <mxPoint x="550" y="150" as="sourcePoint" />
            <Array as="points" />
          </mxGeometry>
        </mxCell>
        <mxCell id="1TbfYhRnuercMT2C-Q1D-41" value="X%" style="edgeLabel;html=1;align=center;verticalAlign=middle;resizable=0;points=[];" vertex="1" connectable="0" parent="1TbfYhRnuercMT2C-Q1D-35">
          <mxGeometry x="0.4889" y="-1" relative="1" as="geometry">
            <mxPoint x="-13" y="-1" as="offset" />
          </mxGeometry>
        </mxCell>
        <mxCell id="1TbfYhRnuercMT2C-Q1D-36" style="edgeStyle=orthogonalEdgeStyle;rounded=0;orthogonalLoop=1;jettySize=auto;html=1;entryX=0;entryY=0.5;entryDx=0;entryDy=0;entryPerimeter=0;exitX=0.5;exitY=0;exitDx=0;exitDy=0;" edge="1" parent="1" source="1TbfYhRnuercMT2C-Q1D-76" target="1TbfYhRnuercMT2C-Q1D-14">
          <mxGeometry relative="1" as="geometry">
            <mxPoint x="550" y="150" as="sourcePoint" />
            <Array as="points">
              <mxPoint x="625" y="150" />
              <mxPoint x="625" y="260" />
            </Array>
          </mxGeometry>
        </mxCell>
        <mxCell id="1TbfYhRnuercMT2C-Q1D-42" value="X%" style="edgeLabel;html=1;align=center;verticalAlign=middle;resizable=0;points=[];" vertex="1" connectable="0" parent="1TbfYhRnuercMT2C-Q1D-36">
          <mxGeometry x="0.76" relative="1" as="geometry">
            <mxPoint x="-9" as="offset" />
          </mxGeometry>
        </mxCell>
        <mxCell id="1TbfYhRnuercMT2C-Q1D-80" style="edgeStyle=orthogonalEdgeStyle;rounded=0;orthogonalLoop=1;jettySize=auto;html=1;entryX=0.75;entryY=1;entryDx=0;entryDy=0;exitX=0.5;exitY=0;exitDx=0;exitDy=0;" edge="1" parent="1" source="1TbfYhRnuercMT2C-Q1D-53" target="1TbfYhRnuercMT2C-Q1D-76">
          <mxGeometry relative="1" as="geometry" />
        </mxCell>
        <mxCell id="1TbfYhRnuercMT2C-Q1D-53" value="" style="rounded=0;whiteSpace=wrap;html=1;" vertex="1" parent="1">
          <mxGeometry x="490" y="190" width="80" height="10" as="geometry" />
        </mxCell>
        <mxCell id="1TbfYhRnuercMT2C-Q1D-62" style="edgeStyle=orthogonalEdgeStyle;rounded=0;orthogonalLoop=1;jettySize=auto;html=1;entryX=0.25;entryY=1;entryDx=0;entryDy=0;" edge="1" parent="1" source="1TbfYhRnuercMT2C-Q1D-58" target="1TbfYhRnuercMT2C-Q1D-8">
          <mxGeometry relative="1" as="geometry" />
        </mxCell>
        <mxCell id="1TbfYhRnuercMT2C-Q1D-58" value="" style="rounded=0;whiteSpace=wrap;html=1;" vertex="1" parent="1">
          <mxGeometry x="430" y="660" width="80" height="10" as="geometry" />
        </mxCell>
        <mxCell id="1TbfYhRnuercMT2C-Q1D-76" value="" style="rounded=0;whiteSpace=wrap;html=1;rotation=90;" vertex="1" parent="1">
          <mxGeometry x="560" y="145" width="80" height="10" as="geometry" />
        </mxCell>
        <mxCell id="1TbfYhRnuercMT2C-Q1D-83" value="N&amp;nbsp;∈ {1, 2, 3, 4, 5}" style="text;html=1;align=center;verticalAlign=middle;resizable=0;points=[];autosize=1;strokeColor=none;fillColor=none;fontStyle=1" vertex="1" parent="1">
          <mxGeometry x="610" y="300" width="120" height="30" as="geometry" />
        </mxCell>
      </root>
    </mxGraphModel>
  </diagram>
</mxfile>
